# xmcd
#
# Track frame offsets:
#	150
#	19937
#	33977
#	44125
#	67080
#	87487
#	106667
#	137115
#	155659
#	169325
#
# Disc length: 2715 seconds
#
# Revision: 5
# Processed by: cddbd v1.5.2PL0 Copyright (c) Steve Scherf et al.
# Submitted via: audiograbber 1.83.01
#
DISCID=8d0a990a
DTITLE=The Susan Tedeschi Band - Better Days
DYEAR=1995
DGENRE=Electric Blues
TTITLE0=It's Up To You
TTITLE1=Gonna Write Him A Letter
TTITLE2=Love Never Treats Me Right
TTITLE3=It Hurts Me Too
TTITLE4=Locomotive
TTITLE5=You're On My Hair
TTITLE6=Better Days
TTITLE7=Hound Dog
TTITLE8=I Don't Want Nobody
TTITLE9=Ain't Nobody's Business
EXTD=
EXTT0=
EXTT1=
EXTT2=
EXTT3=
EXTT4=
EXTT5=
EXTT6=
EXTT7=
EXTT8=
EXTT9=
PLAYORDER=
